<svg width="35" height="53" viewBox="0 0 35 53" fill="currentColor"
  xmlns="http://www.w3.org/2000/svg">
  <path
    d="M26.234 51.5365L26.234 45.8915C26.234 45.3688 26.5592 44.8462 27.1011 44.6371C33.929 41.9191 32.0865 30.3156 31.4363 25.925L31.4363 25.716C31.1111 23.4162 30.8944 21.5345 30.8944 19.7574L30.8944 12.7535C30.8944 11.8126 30.1357 11.0809 29.1603 11.0809C28.1849 11.0809 27.4262 11.8126 27.4262 12.7535L27.4262 22.8935C27.4262 23.6252 26.7759 24.357 25.9089 24.357C25.1503 24.357 24.5 23.7298 24.5 22.8935L24.5 6.79487C24.5 5.85404 23.7413 5.12229 22.7659 5.12229C21.7905 5.12229 21.0318 5.85404 21.0318 6.79487L21.0318 20.8028C21.0318 21.639 20.3816 22.2663 19.6229 22.2663C18.7559 22.2663 18.1056 21.639 18.1056 20.8028L18.1056 4.49507C18.1056 3.55424 17.3469 2.82249 16.3715 2.82249C15.3961 2.82249 14.6375 3.55424 14.6375 4.49507L14.6375 19.5483C14.6375 20.3846 13.9872 21.0118 13.1202 21.0118C12.3615 21.0118 11.7112 20.3846 11.7112 19.5483L11.7112 6.79487C11.7112 5.85404 10.9526 5.12229 9.97716 5.12229C9.00174 5.12229 8.24309 5.85404 8.24309 6.79487L8.24309 19.0256C9.21851 19.8619 9.65202 21.1164 9.65202 22.3708L9.65202 25.925C19.8397 28.5385 18.8643 37.1105 18.8643 37.215C18.7559 37.9467 18.1056 38.4694 17.4553 38.4694C17.347 38.4694 17.3469 38.4694 17.2386 38.4694C16.4799 38.3649 15.8296 37.6331 15.938 36.9014C15.938 36.5878 16.5883 31.1519 9.7604 28.9566C9.7604 29.4793 9.86878 29.8974 9.97716 30.4201L10.1939 31.3609C10.4107 32.0927 9.86878 32.8245 9.11013 33.0335C8.35147 33.2426 7.59281 32.7199 7.37606 31.9882L7.1593 31.0473C6.94254 30.002 6.83416 28.8521 6.83416 27.7022L6.83416 22.4753C6.83416 21.9527 6.6174 21.5345 6.29226 21.2209C5.96712 20.9073 5.42523 20.6982 4.99171 20.6982C4.0163 20.6982 3.25764 21.5345 3.25764 22.3708L3.04088 32.4063C2.93251 35.1243 4.0163 37.6331 5.96713 39.6193L11.6028 45.2643C11.8196 45.5779 12.0364 45.8915 12.0364 46.2051L12.0364 51.5365C12.0364 52.2682 11.3861 53 10.5191 53C9.65202 53 8.89337 52.3728 8.89337 51.5365L8.89337 46.7278L3.69116 41.501C1.19844 38.9921 -0.102113 35.7515 0.00626644 32.3018L0.223025 22.1617C0.331404 19.7574 2.28223 17.7712 4.77495 17.6667C4.99171 17.6667 5.10009 17.6667 5.31685 17.6667L5.31685 6.79487C5.31685 4.39053 7.37605 2.2998 9.97716 2.2998C10.7358 2.2998 11.3861 2.50888 12.0364 2.82249C12.6866 1.1499 14.4207 -6.30349e-07 16.3715 -7.15623e-07C18.3224 -8.00896e-07 19.9481 1.1499 20.7067 2.82249C21.357 2.50888 22.0073 2.2998 22.7659 2.2998C25.367 2.2998 27.4262 4.28599 27.4262 6.79487L27.4262 8.67653C27.9681 8.46745 28.51 8.36292 29.1603 8.36292C31.7614 8.36292 33.8206 10.3491 33.8206 12.858L33.8206 19.8619C33.8206 21.5345 33.929 23.3116 34.2541 25.4024L34.2541 25.6114C35.0128 30.4201 36.8552 42.7554 29.0519 46.8323L29.0519 51.5365C29.0519 52.2682 28.4016 53 27.5346 53C26.8843 53 26.234 52.3728 26.234 51.5365Z"
    fill="black" />
</svg>