<svg width="33" height="20" viewBox="0 0 33 20" fill="none" xmlns="http://www.w3.org/2000/svg">
<path id="Point" d="M20.0885 19.761C20.2292 19.761 20.3699 19.727 20.4403 19.727L24.0288 19.727C25.5416 19.727 26.7729 18.5383 26.7729 17.0779C26.7729 16.4666 26.5267 15.8893 26.1748 15.4477C26.8785 14.9723 27.3358 14.1911 27.3358 13.3081C27.3358 12.7308 27.1247 12.1534 26.7729 11.7119C27.5117 11.2364 27.9691 10.4213 27.9691 9.50432C27.9691 9.09677 27.8635 8.72318 27.6876 8.38356L30.2207 8.38356C31.7687 8.38356 33 7.19487 33 5.70052C33 4.20618 31.7687 3.01749 30.2207 3.01749L20.8273 3.01749C20.5458 1.69295 19.3849 0.640117 17.9424 0.470305L14.4243 0.0627558C11.6098 -0.276869 8.79531 0.775967 6.96589 2.88164L5.27718 4.78354L0.809169 4.78354C0.386994 4.78354 0.0351798 5.12316 0.0351798 5.53071C0.0351797 5.93826 0.386994 6.27788 0.809169 6.27788L5.629 6.27788C5.87527 6.27788 6.08635 6.176 6.22708 6.00619L8.12686 3.86655C9.63966 2.16843 11.9264 1.31937 14.2132 1.59107L17.7313 1.99862C18.6109 2.1005 19.2793 2.81371 19.2793 3.69674L19.2793 8.72318C19.2793 9.02884 19.1738 9.30054 18.9275 9.50432C18.7164 9.70809 18.435 9.84394 18.1183 9.84394C17.4851 9.84394 16.9925 9.36847 16.9574 8.75714L16.887 5.42882C16.887 5.05524 16.5704 4.71561 16.1834 4.68165L14.3188 4.47787C13.8966 4.44391 13.5096 4.71561 13.4392 5.15712C13.3689 5.56467 13.6855 5.93826 14.1429 6.00619L15.339 6.14203L15.339 6.27788C13.9318 9.47036 10.7655 9.23262 10.6247 9.23262C10.2026 9.19866 9.81557 9.50432 9.7452 9.91187C9.7452 9.94583 9.7452 9.97979 9.7452 9.97979C9.7452 10.3534 10.0618 10.693 10.4488 10.727C10.484 10.727 13.2985 10.9647 15.4094 8.89299C15.4797 10.1836 16.4648 11.1685 17.7665 11.3383C17.9072 11.4741 18.048 11.61 18.2239 11.7119C17.8721 12.1534 17.661 12.6968 17.661 13.3081C17.661 14.1911 18.1183 14.9723 18.822 15.4477C18.4701 15.8893 18.2239 16.4666 18.2239 17.0779C18.2239 17.5195 18.3646 17.961 18.5757 18.3346C16.9925 18.4364 14.4947 18.5723 12.1727 18.3346C9.63966 18.0968 6.61407 17.3496 6.40299 15.244C6.3678 14.8704 6.01599 14.5647 5.629 14.5647L0.773987 14.5647C0.351813 14.5647 -1.34367e-06 14.9043 -1.36148e-06 15.3119C-1.3793e-06 15.7194 0.351813 16.0591 0.773987 16.0591L4.99574 16.0591C5.59382 18.1308 7.95096 19.4214 12.0672 19.8289C15.339 20.2025 18.9275 19.8629 20.0885 19.761ZM20.8977 6.85525L20.8977 4.5458L30.2207 4.5458C30.8891 4.5458 31.4168 5.05524 31.4168 5.70052C31.4168 6.34581 30.8891 6.85525 30.2207 6.85525L20.8977 6.85525ZM20.0181 10.659C20.0533 10.6251 20.0533 10.6251 20.0885 10.5911C20.6162 10.0817 20.8977 9.43639 20.8977 8.72318L20.8977 8.38356L23.1141 8.38356L25.2249 8.38356C25.8582 8.38356 26.3859 8.89299 26.3859 9.50432C26.3859 10.1156 25.8582 10.6251 25.2249 10.6251L20.0181 10.6251L20.0181 10.659ZM20.4403 14.4289C19.807 14.4289 19.2793 13.9194 19.2793 13.3081C19.2793 12.6968 19.807 12.1874 20.4403 12.1874L24.5917 12.1874C25.2249 12.1874 25.7527 12.6968 25.7527 13.3081C25.7527 13.9194 25.2249 14.4289 24.5917 14.4289L20.4403 14.4289ZM21.0032 18.1987C20.3699 18.1987 19.8422 17.6893 19.8422 17.0779C19.8422 16.4666 20.3699 15.9572 21.0032 15.9572L24.0288 15.9572C24.662 15.9572 25.1898 16.4666 25.1898 17.0779C25.1898 17.6893 24.662 18.1987 24.0288 18.1987L21.0032 18.1987Z" fill="black"/>
</svg>
