<svg width="34" height="43" viewBox="0 0 34 43" fill="currentColor"
  xmlns="http://www.w3.org/2000/svg">
  <path
    d="M3.80826 15.365L3.0226 21.5553C2.68589 24.0977 3.47155 26.5296 5.1551 28.4087L11.1037 35.0411C11.3281 35.2622 11.4404 35.5938 11.4404 36.036L11.4404 41.563C11.4404 42.3368 10.7669 43 9.98129 43C9.19563 43 8.52221 42.3368 8.52221 41.563L8.52221 36.5887L2.91036 30.2879C0.665622 27.7455 -0.344511 24.4293 0.104437 21.1131L0.890096 14.9229C1.11457 12.8226 2.34918 11.1645 4.03273 10.1697L4.03273 5.85861C4.03273 3.75835 5.26734 1.87918 7.2876 1.21594C8.85892 0.773777 10.318 1.1054 11.4404 1.87918C12.3383 0.773779 13.6851 -5.98195e-07 15.2564 -6.6688e-07C16.8277 -7.35564e-07 18.1746 0.773779 18.9602 1.87918C19.7459 1.32648 20.6438 0.994859 21.6539 0.994859C23.113 0.994859 24.4599 1.6581 25.3578 2.76349C26.1434 2.2108 27.0413 1.87918 28.1637 1.87918C30.7451 1.87918 32.8776 4.20051 32.8776 6.74293L32.8776 11.6067C32.8776 12.1594 32.7654 12.6015 32.6532 13.0437C33.7755 18.018 34 23.4344 34 27.1928C34 30.8406 32.092 34.2673 28.8371 36.1465L28.1637 36.5887L28.1637 41.563C28.1637 42.3368 27.4903 43 26.7046 43C25.9189 43 25.2455 42.3368 25.2455 41.563L25.2455 35.7044C25.2455 35.1517 25.47 34.7095 25.9189 34.4884L27.1535 33.7147C29.5105 32.2776 30.8574 29.8458 30.8574 27.1928C30.8574 24.0977 30.7451 19.8972 30.0717 15.8072C29.5105 16.1388 28.8371 16.2494 28.0514 16.2494C27.0413 16.2494 26.0312 15.9177 25.2455 15.365C24.3476 16.4704 23.0008 17.1337 21.5417 17.1337C20.5316 17.1337 19.6337 16.8021 18.9602 16.3599C18.7358 16.8021 18.5113 17.1337 18.1746 17.4653C17.3889 18.1285 16.491 18.5707 15.4809 18.6812C18.0624 21.3342 18.7358 24.7609 18.5113 26.7506C18.3991 27.5244 17.8379 28.0771 17.0522 28.0771L16.94 28.0771C16.1543 27.9666 15.5931 27.3033 15.5931 26.5296C15.5931 26.3085 16.0421 21.3342 10.7669 18.9023L10.5425 20.5604C10.4302 21.3342 9.64458 21.8869 8.85892 21.7763C8.07326 21.6658 7.51208 20.892 7.62431 20.1182L8.07326 16.8021C8.1855 16.0283 8.85892 15.5861 9.64458 15.5861L14.8075 15.8072C15.2564 15.8072 15.7054 15.6967 16.0421 15.365C16.3788 15.0334 16.6033 14.5913 16.6033 14.1491C16.6033 13.2648 15.8176 12.491 14.9197 12.491L7.2876 12.3805C5.71629 12.2699 4.03273 13.5964 3.80826 15.365ZM7.06313 5.74807L7.06313 9.39589C7.2876 9.39589 7.39984 9.39589 7.62431 9.39589L10.6547 9.50642L10.6547 5.85861C10.6547 4.86375 9.86905 4.08997 8.85892 4.08997C7.84879 3.97943 7.06313 4.86375 7.06313 5.74807ZM15.2564 2.98458C14.2463 2.98458 13.4606 3.75835 13.4606 4.75321L13.4606 9.50642L15.1442 9.50642C15.8176 9.50642 16.3788 9.72751 17.0522 9.94859L17.0522 4.75321C16.94 3.75835 16.1543 2.98458 15.2564 2.98458ZM29.8472 11.6067L29.8472 6.63239C29.8472 5.63753 29.0616 4.86375 28.0514 4.86375C27.0413 4.86375 26.2557 5.63753 26.2557 6.63239L26.2557 11.6067C26.2557 12.6015 27.0413 13.3753 28.0514 13.3753C29.0616 13.3753 29.8472 12.6015 29.8472 11.6067ZM19.9704 12.491C19.9704 13.4859 20.756 14.2596 21.7662 14.2596C22.7763 14.2596 23.562 13.4859 23.562 12.491L23.562 5.74807C23.562 4.75321 22.7763 3.97943 21.7662 3.97943C20.756 3.97943 19.9704 4.75321 19.9704 5.74807L19.9704 12.491Z"
    fill="black" />
</svg>