<svg width="34" height="59" viewBox="0 0 34 59" fill="currentColor"
  xmlns="http://www.w3.org/2000/svg">
  <path
    d="M14.583 3.85928L12.4505 15.6425L10.7669 6.03288C10.318 3.40168 7.84879 1.68569 5.37957 2.14329C2.79812 2.60088 1.11457 5.11768 1.56351 7.74888L4.48168 24.7944C2.57365 25.7096 1.11457 27.6544 0.890094 29.9424L0.104435 36.3488C-0.344513 39.7808 0.66562 43.2128 2.91036 45.844L8.52221 52.3648L8.52221 57.5128C8.52221 58.3136 9.19563 59 9.98129 59C10.7669 59 11.4404 58.3136 11.4404 57.5128L11.4404 51.7928C11.4404 51.4496 11.3281 51.1064 11.1037 50.7632L5.1551 43.8992C3.47154 41.9544 2.68588 39.3232 3.02259 36.8064L3.80825 30.4C4.03273 28.5696 5.60405 27.1968 7.39984 27.1968C7.39984 27.1968 7.39984 27.1968 7.51207 27.1968L15.1442 27.3112C16.0421 27.3112 16.8277 28.112 16.8277 29.0272C16.8277 29.4848 16.6033 29.9424 16.2666 30.2856C15.9299 30.6288 15.4809 30.7432 15.032 30.7432L9.86905 30.5144C9.08339 30.5144 8.40997 31.0864 8.29773 31.7728L7.84879 35.2048C7.73655 36.0056 8.29773 36.8064 9.08339 36.9208C9.86905 37.0352 10.6547 36.4632 10.7669 35.6624L10.9914 33.9464C16.1543 36.4632 15.8176 41.6112 15.8176 41.84C15.7054 42.6408 16.3788 43.4416 17.1645 43.4416L17.2767 43.4416C18.0624 43.4416 18.6235 42.8696 18.7358 42.0688C18.9602 40.0096 18.3991 36.4632 15.7054 33.7176C16.7155 33.6032 17.6134 33.1456 18.2868 32.4592C18.6235 32.116 18.9602 31.6584 19.1847 31.2008C19.7459 31.544 20.3071 31.8872 20.9805 32.0016C21.3172 32.0016 21.5417 32.116 21.7662 32.116C23.0008 32.116 24.1231 31.6584 24.9088 30.8576C25.5822 31.544 26.4801 32.116 27.4903 32.2304C27.7147 32.2304 28.0514 32.3448 28.2759 32.3448C28.9493 32.3448 29.6228 32.2304 30.2962 31.8872C30.8574 35.7768 30.9696 39.7808 30.9696 42.6408C30.9696 45.3864 29.5105 47.9032 27.2658 49.3904L25.9189 50.3056C25.47 50.5344 25.2455 51.1064 25.2455 51.564L25.2455 57.5128C25.2455 58.3136 25.9189 59 26.7046 59C27.4903 59 28.1637 58.3136 28.1637 57.5128L28.1637 52.3648L28.8371 51.9072C31.9797 49.848 33.8878 46.416 34 42.6408C34 39.0944 33.8878 33.832 32.8776 28.9128C32.9899 28.684 32.9899 28.5696 32.9899 28.3408L33.8878 23.3073C34.3367 20.6761 32.6532 18.2737 30.0717 17.7017C29.0616 17.4729 28.0514 17.7017 27.1535 18.1593C27.0413 17.9305 26.9291 17.8161 26.8168 17.5873C26.1434 16.5577 25.021 15.8713 23.7864 15.6425C23.2253 15.5281 22.5518 15.5281 21.9906 15.6425L23.6742 5.57528C23.8987 4.31688 23.6742 3.05848 22.8885 2.02889C22.2151 0.999288 21.0927 0.312888 19.8581 0.0840885C18.6235 -0.144711 17.3889 0.0840895 16.3788 0.884888C15.4809 1.45689 14.8075 2.60088 14.583 3.85928ZM7.39984 24.1081L4.48168 7.17688C4.2572 6.26168 4.93062 5.23208 5.94076 5.11768C6.05299 5.11768 6.16523 5.11768 6.27747 5.11768C7.06313 5.11768 7.84879 5.68968 7.96102 6.60488L10.9914 24.1081L7.62431 23.9937C7.51208 24.1081 7.39984 24.1081 7.39984 24.1081ZM29.5105 20.5617C29.9595 20.6761 30.4084 20.9049 30.6329 21.2481C30.8574 21.5913 30.9696 22.1633 30.9696 22.6209L30.0717 27.6544C29.9595 28.112 29.735 28.5696 29.3983 28.7984C29.0616 29.0272 28.5004 29.1416 28.0514 29.1416C27.6025 29.0272 27.1536 28.7984 26.9291 28.4552C26.7046 28.112 26.5924 27.54 26.5924 27.0824L27.4903 22.0489C27.6025 21.1337 28.6126 20.4473 29.5105 20.5617ZM23.3375 18.5025C23.7864 18.6169 24.2354 18.8457 24.4599 19.1889C24.6843 19.5321 24.7966 20.1041 24.7966 20.5617L23.562 27.4256C23.4497 27.8832 23.2253 28.3408 22.8885 28.5696C22.5518 28.7984 21.9906 28.9128 21.5417 28.9128C20.6438 28.7984 19.9704 27.7688 20.0826 26.8536L21.3172 19.9897C21.4295 19.5321 21.6539 19.0745 21.9906 18.8457C22.3274 18.6169 22.6641 18.5025 23.0008 18.5025C23.113 18.5025 23.2253 18.5025 23.3375 18.5025ZM20.6438 3.63048C20.8683 3.97368 20.9805 4.54568 20.9805 5.00328L17.5012 25.0232C16.8277 24.5657 16.0421 24.3369 15.2564 24.3369L14.1341 24.3369L17.6134 4.43128C17.7256 3.97368 17.9501 3.51608 18.2868 3.28728C18.6235 3.05848 19.1847 2.94408 19.6337 2.94408C19.9704 2.94408 20.3071 3.28728 20.6438 3.63048Z"
    fill="black" />
</svg>